<?xml version="1.0" encoding="UTF-8" standalone="no"?>
<!DOCTYPE svg PUBLIC "-//W3C//DTD SVG 1.1//EN"
 "http://www.w3.org/Graphics/SVG/1.1/DTD/svg11.dtd">
<!-- Generated by graphviz version 2.40.1 (20161225.0304)
 -->
<!-- Title: G Pages: 1 -->
<svg width="497pt" height="310pt"
 viewBox="0.00 0.00 497.20 310.20" xmlns="http://www.w3.org/2000/svg" xmlns:xlink="http://www.w3.org/1999/xlink">
<g id="graph0" class="graph" transform="scale(1 1) rotate(0) translate(21.6 288.6)">
<title>G</title>
<polygon fill="#111111" stroke="transparent" points="-21.6,21.6 -21.6,-288.6 475.6,-288.6 475.6,21.6 -21.6,21.6"/>
<!-- core/action.js -->
<g id="node1" class="node">
<title>core/action.js</title>
<path fill="none" stroke="#c6c5fe" d="M283.3333,-267C283.3333,-267 196.6667,-267 196.6667,-267 192.8333,-267 189,-263.1667 189,-259.3333 189,-259.3333 189,-251.6667 189,-251.6667 189,-247.8333 192.8333,-244 196.6667,-244 196.6667,-244 283.3333,-244 283.3333,-244 287.1667,-244 291,-247.8333 291,-251.6667 291,-251.6667 291,-259.3333 291,-259.3333 291,-263.1667 287.1667,-267 283.3333,-267"/>
<text text-anchor="middle" x="240" y="-251.8" font-family="Arial" font-size="14.00" fill="#c6c5fe">core/action.js</text>
</g>
<!-- core/message.js -->
<g id="node2" class="node">
<title>core/message.js</title>
<path fill="none" stroke="#cfffac" d="M446.3333,-146C446.3333,-146 338.6667,-146 338.6667,-146 334.8333,-146 331,-142.1667 331,-138.3333 331,-138.3333 331,-130.6667 331,-130.6667 331,-126.8333 334.8333,-123 338.6667,-123 338.6667,-123 446.3333,-123 446.3333,-123 450.1667,-123 454,-126.8333 454,-130.6667 454,-130.6667 454,-138.3333 454,-138.3333 454,-142.1667 450.1667,-146 446.3333,-146"/>
<text text-anchor="middle" x="392.5" y="-130.8" font-family="Arial" font-size="14.00" fill="#cfffac">core/message.js</text>
</g>
<!-- core/action.js&#45;&gt;core/message.js -->
<g id="edge1" class="edge">
<title>core/action.js&#45;&gt;core/message.js</title>
<path fill="none" stroke="#757575" d="M278.6506,-243.997C284.3407,-241.5867 289.9723,-238.7646 295,-235.5 329.2863,-213.2371 360.5001,-176.7884 377.9484,-154.3009"/>
<polygon fill="#757575" stroke="#757575" points="380.8793,-156.2288 384.1441,-146.1495 375.3064,-151.9929 380.8793,-156.2288"/>
</g>
<!-- core/logger.js -->
<g id="node3" class="node">
<title>core/logger.js</title>
<path fill="none" stroke="#c6c5fe" d="M283.8333,-226C283.8333,-226 196.1667,-226 196.1667,-226 192.3333,-226 188.5,-222.1667 188.5,-218.3333 188.5,-218.3333 188.5,-210.6667 188.5,-210.6667 188.5,-206.8333 192.3333,-203 196.1667,-203 196.1667,-203 283.8333,-203 283.8333,-203 287.6667,-203 291.5,-206.8333 291.5,-210.6667 291.5,-210.6667 291.5,-218.3333 291.5,-218.3333 291.5,-222.1667 287.6667,-226 283.8333,-226"/>
<text text-anchor="middle" x="240" y="-210.8" font-family="Arial" font-size="14.00" fill="#c6c5fe">core/logger.js</text>
</g>
<!-- core/logger.js&#45;&gt;core/message.js -->
<g id="edge2" class="edge">
<title>core/logger.js&#45;&gt;core/message.js</title>
<path fill="none" stroke="#757575" d="M265.3559,-202.9287C274.7345,-198.5402 285.4132,-193.4144 295,-188.5 318.3805,-176.5147 344.3878,-162.0521 363.6581,-151.1117"/>
<polygon fill="#757575" stroke="#757575" points="365.582,-154.0437 372.5358,-146.0502 362.115,-147.9626 365.582,-154.0437"/>
</g>
<!-- core/messageBus.js -->
<g id="node4" class="node">
<title>core/messageBus.js</title>
<path fill="none" stroke="#cfffac" d="M141.3333,-207C141.3333,-207 7.6667,-207 7.6667,-207 3.8333,-207 0,-203.1667 0,-199.3333 0,-199.3333 0,-191.6667 0,-191.6667 0,-187.8333 3.8333,-184 7.6667,-184 7.6667,-184 141.3333,-184 141.3333,-184 145.1667,-184 149,-187.8333 149,-191.6667 149,-191.6667 149,-199.3333 149,-199.3333 149,-203.1667 145.1667,-207 141.3333,-207"/>
<text text-anchor="middle" x="74.5" y="-191.8" font-family="Arial" font-size="14.00" fill="#cfffac">core/messageBus.js</text>
</g>
<!-- core/runner.js -->
<g id="node5" class="node">
<title>core/runner.js</title>
<path fill="none" stroke="#c6c5fe" d="M284.3333,-146C284.3333,-146 195.6667,-146 195.6667,-146 191.8333,-146 188,-142.1667 188,-138.3333 188,-138.3333 188,-130.6667 188,-130.6667 188,-126.8333 191.8333,-123 195.6667,-123 195.6667,-123 284.3333,-123 284.3333,-123 288.1667,-123 292,-126.8333 292,-130.6667 292,-130.6667 292,-138.3333 292,-138.3333 292,-142.1667 288.1667,-146 284.3333,-146"/>
<text text-anchor="middle" x="240" y="-130.8" font-family="Arial" font-size="14.00" fill="#c6c5fe">core/runner.js</text>
</g>
<!-- core/runner.js&#45;&gt;core/message.js -->
<g id="edge3" class="edge">
<title>core/runner.js&#45;&gt;core/message.js</title>
<path fill="none" stroke="#757575" d="M292.0553,-134.5C301.3411,-134.5 311.161,-134.5 320.8801,-134.5"/>
<polygon fill="#757575" stroke="#757575" points="320.9455,-138.0001 330.9455,-134.5 320.9454,-131.0001 320.9455,-138.0001"/>
</g>
<!-- core/service.js -->
<g id="node6" class="node">
<title>core/service.js</title>
<path fill="none" stroke="#c6c5fe" d="M287.3333,-105C287.3333,-105 192.6667,-105 192.6667,-105 188.8333,-105 185,-101.1667 185,-97.3333 185,-97.3333 185,-89.6667 185,-89.6667 185,-85.8333 188.8333,-82 192.6667,-82 192.6667,-82 287.3333,-82 287.3333,-82 291.1667,-82 295,-85.8333 295,-89.6667 295,-89.6667 295,-97.3333 295,-97.3333 295,-101.1667 291.1667,-105 287.3333,-105"/>
<text text-anchor="middle" x="240" y="-89.8" font-family="Arial" font-size="14.00" fill="#c6c5fe">core/service.js</text>
</g>
<!-- core/service.js&#45;&gt;core/message.js -->
<g id="edge4" class="edge">
<title>core/service.js&#45;&gt;core/message.js</title>
<path fill="none" stroke="#757575" d="M282.8856,-105.0299C300.5838,-109.7881 321.2692,-115.3494 339.8729,-120.3511"/>
<polygon fill="#757575" stroke="#757575" points="339.1065,-123.7693 349.6723,-122.9857 340.924,-117.0093 339.1065,-123.7693"/>
</g>
<!-- core/store.js -->
<g id="node7" class="node">
<title>core/store.js</title>
<path fill="none" stroke="#c6c5fe" d="M279.8333,-64C279.8333,-64 200.1667,-64 200.1667,-64 196.3333,-64 192.5,-60.1667 192.5,-56.3333 192.5,-56.3333 192.5,-48.6667 192.5,-48.6667 192.5,-44.8333 196.3333,-41 200.1667,-41 200.1667,-41 279.8333,-41 279.8333,-41 283.6667,-41 287.5,-44.8333 287.5,-48.6667 287.5,-48.6667 287.5,-56.3333 287.5,-56.3333 287.5,-60.1667 283.6667,-64 279.8333,-64"/>
<text text-anchor="middle" x="240" y="-48.8" font-family="Arial" font-size="14.00" fill="#c6c5fe">core/store.js</text>
</g>
<!-- core/store.js&#45;&gt;core/message.js -->
<g id="edge5" class="edge">
<title>core/store.js&#45;&gt;core/message.js</title>
<path fill="none" stroke="#757575" d="M275.3915,-64.0779C282.0157,-66.6058 288.8018,-69.4477 295,-72.5 321.2178,-85.4108 349.1718,-103.7064 368.3949,-117.0765"/>
<polygon fill="#757575" stroke="#757575" points="366.3835,-119.9408 376.5751,-122.8359 370.4133,-114.2172 366.3835,-119.9408"/>
</g>
<!-- env.js -->
<g id="node8" class="node">
<title>env.js</title>
<path fill="none" stroke="#c6c5fe" d="M259.3333,-23C259.3333,-23 220.6667,-23 220.6667,-23 216.8333,-23 213,-19.1667 213,-15.3333 213,-15.3333 213,-7.6667 213,-7.6667 213,-3.8333 216.8333,0 220.6667,0 220.6667,0 259.3333,0 259.3333,0 263.1667,0 267,-3.8333 267,-7.6667 267,-7.6667 267,-15.3333 267,-15.3333 267,-19.1667 263.1667,-23 259.3333,-23"/>
<text text-anchor="middle" x="240" y="-7.8" font-family="Arial" font-size="14.00" fill="#c6c5fe">env.js</text>
</g>
<!-- env.js&#45;&gt;core/message.js -->
<g id="edge6" class="edge">
<title>env.js&#45;&gt;core/message.js</title>
<path fill="none" stroke="#757575" d="M267.1972,-18.6128C276.4601,-21.7394 286.5906,-25.9809 295,-31.5 329.7106,-54.2808 360.995,-91.7369 378.308,-114.6531"/>
<polygon fill="#757575" stroke="#757575" points="375.6785,-116.9839 384.4393,-122.9421 381.3062,-112.821 375.6785,-116.9839"/>
</g>
<!-- runner.js -->
<g id="node9" class="node">
<title>runner.js</title>
<path fill="none" stroke="#c6c5fe" d="M102.8333,-166C102.8333,-166 46.1667,-166 46.1667,-166 42.3333,-166 38.5,-162.1667 38.5,-158.3333 38.5,-158.3333 38.5,-150.6667 38.5,-150.6667 38.5,-146.8333 42.3333,-143 46.1667,-143 46.1667,-143 102.8333,-143 102.8333,-143 106.6667,-143 110.5,-146.8333 110.5,-150.6667 110.5,-150.6667 110.5,-158.3333 110.5,-158.3333 110.5,-162.1667 106.6667,-166 102.8333,-166"/>
<text text-anchor="middle" x="74.5" y="-150.8" font-family="Arial" font-size="14.00" fill="#c6c5fe">runner.js</text>
</g>
<!-- runner.js&#45;&gt;core/message.js -->
<g id="edge7" class="edge">
<title>runner.js&#45;&gt;core/message.js</title>
<path fill="none" stroke="#757575" d="M110.5244,-157.0955C154.2851,-159.6883 230.287,-162.3901 295,-155.5 309.2707,-153.9806 324.5209,-151.2438 338.6204,-148.2371"/>
<polygon fill="#757575" stroke="#757575" points="339.6475,-151.5945 348.6533,-146.0137 338.1328,-144.7603 339.6475,-151.5945"/>
</g>
<!-- runner.js&#45;&gt;core/runner.js -->
<g id="edge8" class="edge">
<title>runner.js&#45;&gt;core/runner.js</title>
<path fill="none" stroke="#757575" d="M110.8197,-150.1109C130.3756,-147.7477 155.0466,-144.7663 177.5752,-142.0438"/>
<polygon fill="#757575" stroke="#757575" points="178.2414,-145.4888 187.7493,-140.8143 177.4016,-138.5394 178.2414,-145.4888"/>
</g>
</g>
</svg>
