<?xml version="1.0" encoding="UTF-8" standalone="no"?>
<!DOCTYPE svg PUBLIC "-//W3C//DTD SVG 1.1//EN"
 "http://www.w3.org/Graphics/SVG/1.1/DTD/svg11.dtd">
<!-- Generated by graphviz version 2.40.1 (20161225.0304)
 -->
<!-- Title: G Pages: 1 -->
<svg width="192pt" height="394pt"
 viewBox="0.00 0.00 192.20 394.20" xmlns="http://www.w3.org/2000/svg" xmlns:xlink="http://www.w3.org/1999/xlink">
<g id="graph0" class="graph" transform="scale(1 1) rotate(0) translate(21.6 372.6)">
<title>G</title>
<polygon fill="#111111" stroke="transparent" points="-21.6,21.6 -21.6,-372.6 170.6,-372.6 170.6,21.6 -21.6,21.6"/>
<!-- core/action.js -->
<g id="node1" class="node">
<title>core/action.js</title>
<path fill="none" stroke="#cfffac" d="M117.8333,-23C117.8333,-23 31.1667,-23 31.1667,-23 27.3333,-23 23.5,-19.1667 23.5,-15.3333 23.5,-15.3333 23.5,-7.6667 23.5,-7.6667 23.5,-3.8333 27.3333,0 31.1667,0 31.1667,0 117.8333,0 117.8333,0 121.6667,0 125.5,-3.8333 125.5,-7.6667 125.5,-7.6667 125.5,-15.3333 125.5,-15.3333 125.5,-19.1667 121.6667,-23 117.8333,-23"/>
<text text-anchor="middle" x="74.5" y="-7.8" font-family="Arial" font-size="14.00" fill="#cfffac">core/action.js</text>
</g>
<!-- core/logger.js -->
<g id="node2" class="node">
<title>core/logger.js</title>
<path fill="none" stroke="#cfffac" d="M118.3333,-64C118.3333,-64 30.6667,-64 30.6667,-64 26.8333,-64 23,-60.1667 23,-56.3333 23,-56.3333 23,-48.6667 23,-48.6667 23,-44.8333 26.8333,-41 30.6667,-41 30.6667,-41 118.3333,-41 118.3333,-41 122.1667,-41 126,-44.8333 126,-48.6667 126,-48.6667 126,-56.3333 126,-56.3333 126,-60.1667 122.1667,-64 118.3333,-64"/>
<text text-anchor="middle" x="74.5" y="-48.8" font-family="Arial" font-size="14.00" fill="#cfffac">core/logger.js</text>
</g>
<!-- core/message.js -->
<g id="node3" class="node">
<title>core/message.js</title>
<path fill="none" stroke="#cfffac" d="M128.3333,-105C128.3333,-105 20.6667,-105 20.6667,-105 16.8333,-105 13,-101.1667 13,-97.3333 13,-97.3333 13,-89.6667 13,-89.6667 13,-85.8333 16.8333,-82 20.6667,-82 20.6667,-82 128.3333,-82 128.3333,-82 132.1667,-82 136,-85.8333 136,-89.6667 136,-89.6667 136,-97.3333 136,-97.3333 136,-101.1667 132.1667,-105 128.3333,-105"/>
<text text-anchor="middle" x="74.5" y="-89.8" font-family="Arial" font-size="14.00" fill="#cfffac">core/message.js</text>
</g>
<!-- core/messageBus.js -->
<g id="node4" class="node">
<title>core/messageBus.js</title>
<path fill="none" stroke="#cfffac" d="M141.3333,-146C141.3333,-146 7.6667,-146 7.6667,-146 3.8333,-146 0,-142.1667 0,-138.3333 0,-138.3333 0,-130.6667 0,-130.6667 0,-126.8333 3.8333,-123 7.6667,-123 7.6667,-123 141.3333,-123 141.3333,-123 145.1667,-123 149,-126.8333 149,-130.6667 149,-130.6667 149,-138.3333 149,-138.3333 149,-142.1667 145.1667,-146 141.3333,-146"/>
<text text-anchor="middle" x="74.5" y="-130.8" font-family="Arial" font-size="14.00" fill="#cfffac">core/messageBus.js</text>
</g>
<!-- core/runner.js -->
<g id="node5" class="node">
<title>core/runner.js</title>
<path fill="none" stroke="#cfffac" d="M118.8333,-187C118.8333,-187 30.1667,-187 30.1667,-187 26.3333,-187 22.5,-183.1667 22.5,-179.3333 22.5,-179.3333 22.5,-171.6667 22.5,-171.6667 22.5,-167.8333 26.3333,-164 30.1667,-164 30.1667,-164 118.8333,-164 118.8333,-164 122.6667,-164 126.5,-167.8333 126.5,-171.6667 126.5,-171.6667 126.5,-179.3333 126.5,-179.3333 126.5,-183.1667 122.6667,-187 118.8333,-187"/>
<text text-anchor="middle" x="74.5" y="-171.8" font-family="Arial" font-size="14.00" fill="#cfffac">core/runner.js</text>
</g>
<!-- core/service.js -->
<g id="node6" class="node">
<title>core/service.js</title>
<path fill="none" stroke="#cfffac" d="M121.8333,-228C121.8333,-228 27.1667,-228 27.1667,-228 23.3333,-228 19.5,-224.1667 19.5,-220.3333 19.5,-220.3333 19.5,-212.6667 19.5,-212.6667 19.5,-208.8333 23.3333,-205 27.1667,-205 27.1667,-205 121.8333,-205 121.8333,-205 125.6667,-205 129.5,-208.8333 129.5,-212.6667 129.5,-212.6667 129.5,-220.3333 129.5,-220.3333 129.5,-224.1667 125.6667,-228 121.8333,-228"/>
<text text-anchor="middle" x="74.5" y="-212.8" font-family="Arial" font-size="14.00" fill="#cfffac">core/service.js</text>
</g>
<!-- core/store.js -->
<g id="node7" class="node">
<title>core/store.js</title>
<path fill="none" stroke="#cfffac" d="M114.3333,-269C114.3333,-269 34.6667,-269 34.6667,-269 30.8333,-269 27,-265.1667 27,-261.3333 27,-261.3333 27,-253.6667 27,-253.6667 27,-249.8333 30.8333,-246 34.6667,-246 34.6667,-246 114.3333,-246 114.3333,-246 118.1667,-246 122,-249.8333 122,-253.6667 122,-253.6667 122,-261.3333 122,-261.3333 122,-265.1667 118.1667,-269 114.3333,-269"/>
<text text-anchor="middle" x="74.5" y="-253.8" font-family="Arial" font-size="14.00" fill="#cfffac">core/store.js</text>
</g>
<!-- env.js -->
<g id="node8" class="node">
<title>env.js</title>
<path fill="none" stroke="#cfffac" d="M93.8333,-310C93.8333,-310 55.1667,-310 55.1667,-310 51.3333,-310 47.5,-306.1667 47.5,-302.3333 47.5,-302.3333 47.5,-294.6667 47.5,-294.6667 47.5,-290.8333 51.3333,-287 55.1667,-287 55.1667,-287 93.8333,-287 93.8333,-287 97.6667,-287 101.5,-290.8333 101.5,-294.6667 101.5,-294.6667 101.5,-302.3333 101.5,-302.3333 101.5,-306.1667 97.6667,-310 93.8333,-310"/>
<text text-anchor="middle" x="74.5" y="-294.8" font-family="Arial" font-size="14.00" fill="#cfffac">env.js</text>
</g>
<!-- runner.js -->
<g id="node9" class="node">
<title>runner.js</title>
<path fill="none" stroke="#cfffac" d="M102.8333,-351C102.8333,-351 46.1667,-351 46.1667,-351 42.3333,-351 38.5,-347.1667 38.5,-343.3333 38.5,-343.3333 38.5,-335.6667 38.5,-335.6667 38.5,-331.8333 42.3333,-328 46.1667,-328 46.1667,-328 102.8333,-328 102.8333,-328 106.6667,-328 110.5,-331.8333 110.5,-335.6667 110.5,-335.6667 110.5,-343.3333 110.5,-343.3333 110.5,-347.1667 106.6667,-351 102.8333,-351"/>
<text text-anchor="middle" x="74.5" y="-335.8" font-family="Arial" font-size="14.00" fill="#cfffac">runner.js</text>
</g>
</g>
</svg>
